<svg width="16" height="16" viewBox="0 0 16 16" fill="none" xmlns="http://www.w3.org/2000/svg">
<path d="M6.66667 6.75977C6.66667 7.50644 7.26362 8.11173 8 8.11173C8.73638 8.11173 9.33333 7.50644 9.33333 6.75977C9.33333 6.01311 8.73638 5.40782 8 5.40782C7.26362 5.40782 6.66667 6.01311 6.66667 6.75977Z" fill="white"/>
<path fill-rule="evenodd" clip-rule="evenodd" d="M7.02718 15.7611C5.0979 14.7637 0.904956 12.167 0.116713 8.11173C-0.54026 4.73184 1.50811 0 8 0C14.4919 0 16.5402 4.73184 15.8833 8.11173C15.0951 12.167 10.9021 14.7637 8.97283 15.7611C8.35678 16.0796 7.64323 16.0796 7.02718 15.7611ZM5.33333 6.75977C5.33333 8.2531 6.52724 9.46368 8 9.46368C9.47276 9.46368 10.6667 8.2531 10.6667 6.75977C10.6667 5.26645 9.47276 4.05586 8 4.05586C6.52724 4.05586 5.33333 5.26645 5.33333 6.75977Z" fill="white"/>
</svg>
