<svg width="20" height="20" viewBox="0 0 20 20" fill="none" xmlns="http://www.w3.org/2000/svg">
<path d="M1.81817 0.00585938C0.814044 0.00585938 0 0.819879 0 1.824V13.2435C0 14.2476 0.814044 15.0617 1.81817 15.0617H6.64764H9.12275C9.27868 15.0616 9.40658 14.9373 9.41036 14.781L9.42613 14.2253C9.42928 14.0624 9.36626 13.9048 9.24845 13.792L8.59859 13.1741C8.12708 12.7245 8.12708 11.9689 8.59859 11.5193L9.24845 10.9014C9.36689 10.789 9.43178 10.6315 9.42769 10.4682L9.4025 9.56802C9.38675 8.91535 9.91681 8.38219 10.5655 8.39971L11.4585 8.42175C11.6214 8.4249 11.7781 8.36063 11.89 8.24251L12.5044 7.59087C13.0603 7.12897 13.7159 7.15833 14.1485 7.59087L14.7628 8.24251C14.8744 8.36095 15.0316 8.42616 15.1943 8.42175L16.0874 8.39971C16.7353 8.38396 17.2649 8.91607 17.2486 9.56802L17.2234 10.4682C17.2203 10.6314 17.2842 10.7889 17.4026 10.9014L18.0524 11.5193C18.524 11.9689 18.524 12.7245 18.0524 13.1741L17.4026 13.792C17.2845 13.9045 17.2193 14.062 17.2234 14.2253L17.236 14.781C17.2391 14.9373 17.3674 15.062 17.5236 15.0617H18.1788C19.1829 15.0617 19.997 14.2476 19.997 13.2435V1.824C19.997 0.819879 19.1829 0.00585938 18.1788 0.00585938H1.81817ZM3.53335 2.6737H16.4647C16.7806 2.67269 17.0366 2.92951 17.0346 3.24543C17.0356 3.56063 16.7798 3.81636 16.4647 3.81535H3.53335C3.22023 3.8134 2.96776 3.55864 2.96874 3.24543C2.96675 2.93168 3.21948 2.67565 3.53335 2.6737ZM3.43193 5.40626H16.3633C16.6764 5.40431 16.9321 5.65607 16.935 5.96912C16.936 6.28498 16.6792 6.54103 16.3633 6.53907H3.43193C3.11944 6.53614 2.86812 6.28139 2.8691 5.96912C2.87199 5.65947 3.12237 5.40916 3.43193 5.40626ZM3.53335 8.12996H7.27089C7.58606 8.12898 7.84182 8.3848 7.84084 8.69991C7.83889 9.01303 7.58411 9.2655 7.27089 9.26452H3.53335C3.22244 9.2626 2.97069 9.01095 2.96874 8.69991C2.96776 8.38679 3.22011 8.13191 3.53335 8.12996ZM3.54597 10.8537H6.36556C6.67868 10.8566 6.93035 11.1123 6.92837 11.4254C6.92935 11.7378 6.67795 11.9924 6.36556 11.9953H3.54597C3.23348 11.9924 2.98213 11.7379 2.98311 11.4254C2.98113 11.1122 3.23291 10.8566 3.54597 10.8537Z" fill="#00518C"/>
<path d="M13.892 8.79994L14.5072 9.46203L15.392 9.43682C15.4992 9.43392 15.6059 9.45288 15.7056 9.49256C15.8052 9.53224 15.8958 9.5918 15.9717 9.66762C16.0475 9.74343 16.1072 9.83392 16.147 9.93354C16.1867 10.0332 16.2058 10.1398 16.203 10.2471L16.1778 11.167L16.826 11.794C16.9037 11.8692 16.9654 11.9592 17.0076 12.0587C17.0498 12.1583 17.0716 12.2652 17.0716 12.3733C17.0716 12.4814 17.0499 12.5884 17.0077 12.688C16.9655 12.7875 16.9037 12.8775 16.826 12.9526L16.1778 13.5797L16.203 14.4996C16.2058 14.6069 16.1867 14.7135 16.147 14.8132C16.1072 14.9128 16.0475 15.0033 15.9717 15.0791C15.8958 15.1549 15.8052 15.2145 15.7056 15.2542C15.6059 15.2938 15.4992 15.3128 15.392 15.3099L14.5072 15.2847L13.892 15.9468C13.8196 16.0248 13.7318 16.087 13.6342 16.1295C13.5367 16.172 13.4314 16.194 13.3249 16.194C13.2185 16.194 13.1132 16.172 13.0156 16.1295C12.9181 16.087 12.8303 16.0248 12.7579 15.9468L12.1427 15.2847L11.2579 15.3099C11.1506 15.3128 11.0439 15.2938 10.9443 15.2542C10.8446 15.2145 10.754 15.1549 10.6781 15.0791C10.6022 15.0033 10.5426 14.9128 10.5028 14.8132C10.463 14.7135 10.4439 14.6069 10.4467 14.4996L10.4719 13.5797L9.82372 12.9526C9.74603 12.8775 9.68427 12.7875 9.64208 12.688C9.59989 12.5884 9.57812 12.4814 9.57813 12.3733C9.57812 12.2652 9.59989 12.1583 9.64208 12.0587C9.68427 11.9592 9.74603 11.8692 9.82372 11.794L10.4719 11.167L10.4467 10.2471C10.4439 10.1398 10.463 10.0332 10.5028 9.93354C10.5426 9.83392 10.6022 9.74343 10.6781 9.66762C10.754 9.5918 10.8446 9.53224 10.9443 9.49256C11.0439 9.45288 11.1506 9.43391 11.2579 9.43682L12.1427 9.46203L12.7579 8.79994C12.8303 8.72196 12.9181 8.65975 13.0156 8.61722C13.1132 8.57468 13.2185 8.55273 13.3249 8.55273C13.4314 8.55273 13.5367 8.57468 13.6342 8.61722C13.7318 8.65975 13.8196 8.72196 13.892 8.79994Z" fill="#00518C"/>
<path d="M11.401 16.1965L11.195 16.2028C11.1149 16.2051 11.038 16.2349 10.9772 16.287C10.9164 16.3392 10.8753 16.4107 10.8609 16.4895L10.3029 19.533C10.2437 19.852 10.5697 20.1046 10.864 19.968L12.6271 19.1601C13.0702 18.9572 13.5797 18.9572 14.0227 19.1601L15.7876 19.968C16.0815 20.1025 16.4049 19.8508 16.3469 19.533L15.789 16.4895C15.7745 16.4107 15.7335 16.3392 15.6726 16.287C15.6118 16.2349 15.5349 16.2051 15.4548 16.2028L15.2469 16.1965C15.158 16.194 15.0696 16.2105 14.9876 16.2449C14.9056 16.2794 14.8319 16.331 14.7715 16.3963L14.369 16.8312C13.8099 17.4329 12.84 17.4329 12.281 16.8312L11.8771 16.396C11.8165 16.3308 11.7428 16.2793 11.6607 16.2449C11.5787 16.2105 11.49 16.194 11.401 16.1965Z" fill="#00518C"/>
</svg>
